<svg width="22" height="22" viewBox="0 0 22 22" fill="none" xmlns="http://www.w3.org/2000/svg">
<g clip-path="url(#clip0_25_383)">
<path d="M11.0002 5.5C10.275 5.5 9.56605 5.71505 8.96307 6.11794C8.36009 6.52084 7.89013 7.0935 7.61261 7.76349C7.33508 8.43349 7.26247 9.17073 7.40395 9.882C7.54543 10.5933 7.89465 11.2466 8.40744 11.7594C8.92023 12.2722 9.57357 12.6214 10.2848 12.7629C10.9961 12.9044 11.7333 12.8317 12.4033 12.5542C13.0733 12.2767 13.646 11.8067 14.0489 11.2038C14.4518 10.6008 14.6668 9.89186 14.6668 9.16667C14.6668 8.19421 14.2805 7.26157 13.5929 6.57394C12.9053 5.88631 11.9726 5.5 11.0002 5.5ZM11.0002 11C10.6376 11 10.2831 10.8925 9.98162 10.691C9.68013 10.4896 9.44515 10.2033 9.30639 9.86825C9.16762 9.53325 9.13132 9.16463 9.20206 8.809C9.2728 8.45337 9.44741 8.1267 9.7038 7.8703C9.9602 7.61391 10.2869 7.4393 10.6425 7.36856C10.9981 7.29782 11.3668 7.33413 11.7018 7.47289C12.0367 7.61165 12.3231 7.84663 12.5245 8.14812C12.726 8.44961 12.8335 8.80407 12.8335 9.16667C12.8335 9.6529 12.6403 10.1192 12.2965 10.463C11.9527 10.8068 11.4864 11 11.0002 11Z" fill="#6B6A69"/>
<path d="M10.9998 22.0003C10.2279 22.0042 9.46632 21.8232 8.77877 21.4723C8.09123 21.1214 7.49776 20.611 7.04805 19.9836C3.55463 15.1647 1.78271 11.542 1.78271 9.21551C1.78271 6.77098 2.7538 4.42658 4.48234 2.69804C6.21087 0.969504 8.55528 -0.00157928 10.9998 -0.00157928C13.4443 -0.00157928 15.7887 0.969504 17.5173 2.69804C19.2458 4.42658 20.2169 6.77098 20.2169 9.21551C20.2169 11.542 18.445 15.1647 14.9515 19.9836C14.5018 20.611 13.9084 21.1214 13.2208 21.4723C12.5333 21.8232 11.7717 22.0042 10.9998 22.0003ZM10.9998 1.9995C9.08618 2.00169 7.25156 2.76284 5.89843 4.11597C4.5453 5.4691 3.78415 7.30372 3.78196 9.21734C3.78196 11.0598 5.51721 14.4671 8.66688 18.8112C8.93427 19.1795 9.28505 19.4792 9.69054 19.6859C10.096 19.8926 10.5447 20.0004 10.9998 20.0004C11.4549 20.0004 11.9036 19.8926 12.3091 19.6859C12.7145 19.4792 13.0653 19.1795 13.3327 18.8112C16.4824 14.4671 18.2176 11.0598 18.2176 9.21734C18.2154 7.30372 17.4543 5.4691 16.1012 4.11597C14.748 2.76284 12.9134 2.00169 10.9998 1.9995Z" fill="#6B6A69"/>
</g>
<defs>
<clipPath id="clip0_25_383">
<rect width="22" height="22" fill="white"/>
</clipPath>
</defs>
</svg>
