<svg width="22" height="20" viewBox="0 0 22 20" fill="none" xmlns="http://www.w3.org/2000/svg">
<path d="M16.0461 0C15.0139 0.0160554 14.0042 0.304199 13.119 0.835332C12.2337 1.36646 11.5044 2.12178 11.0044 3.025C10.5045 2.12178 9.77513 1.36646 8.8899 0.835332C8.00468 0.304199 6.99498 0.0160554 5.96277 0C4.3173 0.0714915 2.767 0.791317 1.65057 2.00221C0.534142 3.21311 -0.057667 4.81665 0.00443768 6.4625C0.00443768 10.6306 4.3916 15.1828 8.0711 18.2692C8.89264 18.9595 9.93135 19.338 11.0044 19.338C12.0775 19.338 13.1162 18.9595 13.9378 18.2692C17.6173 15.1828 22.0044 10.6306 22.0044 6.4625C22.0665 4.81665 21.4747 3.21311 20.3583 2.00221C19.2419 0.791317 17.6916 0.0714915 16.0461 0ZM12.7599 16.8667C12.2685 17.2804 11.6468 17.5073 11.0044 17.5073C10.3621 17.5073 9.74037 17.2804 9.24902 16.8667C4.53919 12.9149 1.83777 9.12358 1.83777 6.4625C1.77511 5.30266 2.17361 4.16509 2.94635 3.29789C3.7191 2.4307 4.8034 1.90424 5.96277 1.83333C7.12214 1.90424 8.20644 2.4307 8.97919 3.29789C9.75194 4.16509 10.1504 5.30266 10.0878 6.4625C10.0878 6.70562 10.1843 6.93877 10.3563 7.11068C10.5282 7.28259 10.7613 7.37917 11.0044 7.37917C11.2476 7.37917 11.4807 7.28259 11.6526 7.11068C11.8245 6.93877 11.9211 6.70562 11.9211 6.4625C11.8584 5.30266 12.2569 4.16509 13.0297 3.29789C13.8024 2.4307 14.8867 1.90424 16.0461 1.83333C17.2055 1.90424 18.2898 2.4307 19.0625 3.29789C19.8353 4.16509 20.2338 5.30266 20.1711 6.4625C20.1711 9.12358 17.4697 12.9149 12.7599 16.863V16.8667Z" fill="#FF5549"/>
<path d="M6.70374 7.0107C6.70374 6.84801 6.56943 6.21989 6.29769 5.70627C6.19065 5.50394 6.02383 5.49766 5.89401 5.52167C5.76419 5.54568 5.64513 5.62002 5.58948 5.73151C5.34978 6.2117 6.01886 6.83542 7.56692 9.39489C9.29057 12.2447 10.1222 12.5055 10.5706 12.8742C10.6799 12.964 10.749 13.092 10.8539 13.1125C10.9589 13.1329 11.0847 13.0557 11.1739 12.9447C11.5731 12.448 11.9141 11.8136 12.4803 11.0875C13.7574 9.44973 14.95 8.30161 15.7368 7.45167C15.9179 7.13284 16.0659 6.79119 16.1625 6.4719C16.2009 6.31621 16.2177 6.17338 15.8528 5.97406" stroke="#FF5549" stroke-width="9" stroke-linecap="round"/>
<path d="M15.3612 8.79417C15.3612 8.81475 15.234 9.15768 14.9926 9.73938C14.8785 9.98874 14.7812 10.1451 14.6888 10.2935C14.5964 10.4418 14.5118 10.5776 14.124 10.9368" stroke="#FF5549" stroke-width="9" stroke-linecap="round"/>
</svg>
