<svg width="22" height="22" viewBox="0 0 22 22" fill="none" xmlns="http://www.w3.org/2000/svg">
<g clip-path="url(#clip0_25_379)">
<path d="M16.0417 1.75682C15.0095 1.77288 13.9998 2.06102 13.1146 2.59215C12.2294 3.12329 11.5 3.8786 11 4.78182C10.5001 3.8786 9.77073 3.12329 8.88551 2.59215C8.00029 2.06102 6.99059 1.77288 5.95838 1.75682C4.31291 1.82831 2.76261 2.54814 1.64618 3.75903C0.529748 4.96993 -0.0620615 6.57347 4.31468e-05 8.21932C4.31468e-05 12.3874 4.38721 16.9396 8.06671 20.026C8.88824 20.7164 9.92695 21.0948 11 21.0948C12.0731 21.0948 13.1118 20.7164 13.9334 20.026C17.6129 16.9396 22 12.3874 22 8.21932C22.0621 6.57347 21.4703 4.96993 20.3539 3.75903C19.2375 2.54814 17.6872 1.82831 16.0417 1.75682ZM12.7555 18.6235C12.2641 19.0372 11.6424 19.2642 11 19.2642C10.3577 19.2642 9.73598 19.0372 9.24463 18.6235C4.53479 14.6717 1.83338 10.8804 1.83338 8.21932C1.77071 7.05948 2.16921 5.92191 2.94196 5.05471C3.71471 4.18752 4.79901 3.66106 5.95838 3.59015C7.11775 3.66106 8.20205 4.18752 8.97479 5.05471C9.74754 5.92191 10.146 7.05948 10.0834 8.21932C10.0834 8.46244 10.18 8.69559 10.3519 8.8675C10.5238 9.03941 10.7569 9.13599 11 9.13599C11.2432 9.13599 11.4763 9.03941 11.6482 8.8675C11.8201 8.69559 11.9167 8.46244 11.9167 8.21932C11.854 7.05948 12.2525 5.92191 13.0253 5.05471C13.798 4.18752 14.8823 3.66106 16.0417 3.59015C17.2011 3.66106 18.2854 4.18752 19.0581 5.05471C19.8309 5.92191 20.2294 7.05948 20.1667 8.21932C20.1667 10.8804 17.4653 14.6717 12.7555 18.6198V18.6235Z" fill="#374957"/>
</g>
<defs>
<clipPath id="clip0_25_379">
<rect width="22" height="22" fill="white"/>
</clipPath>
</defs>
</svg>
